<?xml version="1.0" encoding="UTF-8"?>
<!DOCTYPE svg PUBLIC "-//W3C//DTD SVG 1.1//EN" "http://www.w3.org/Graphics/SVG/1.1/DTD/svg11.dtd">
<svg xmlns="http://www.w3.org/2000/svg" version="1.1" width="348px" height="458px" style="shape-rendering:geometricPrecision; text-rendering:geometricPrecision; image-rendering:optimizeQuality; fill-rule:evenodd; clip-rule:evenodd" xmlns:xlink="http://www.w3.org/1999/xlink">
<g><path style="opacity:1" fill="#f7f7f7" d="M -0.5,-0.5 C 109.5,-0.5 219.5,-0.5 329.5,-0.5C 329.5,4.5 329.5,9.5 329.5,14.5C 334.5,14.5 339.5,14.5 344.5,14.5C 344.5,19.5 344.5,24.5 344.5,29.5C 339.5,29.5 334.5,29.5 329.5,29.5C 329.5,34.5 329.5,39.5 329.5,44.5C 334.5,44.5 339.5,44.5 344.5,44.5C 344.5,49.5 344.5,54.5 344.5,59.5C 339.5,59.5 334.5,59.5 329.5,59.5C 329.5,64.5 329.5,69.5 329.5,74.5C 334.5,74.5 339.5,74.5 344.5,74.5C 344.5,79.5 344.5,84.5 344.5,89.5C 339.5,89.5 334.5,89.5 329.5,89.5C 329.5,94.5 329.5,99.5 329.5,104.5C 334.5,104.5 339.5,104.5 344.5,104.5C 344.5,109.5 344.5,114.5 344.5,119.5C 339.5,119.5 334.5,119.5 329.5,119.5C 329.5,124.5 329.5,129.5 329.5,134.5C 334.5,134.5 339.5,134.5 344.5,134.5C 344.5,139.5 344.5,144.5 344.5,149.5C 339.5,149.5 334.5,149.5 329.5,149.5C 329.5,154.5 329.5,159.5 329.5,164.5C 334.5,164.5 339.5,164.5 344.5,164.5C 344.5,169.5 344.5,174.5 344.5,179.5C 339.5,179.5 334.5,179.5 329.5,179.5C 329.5,184.5 329.5,189.5 329.5,194.5C 334.5,194.5 339.5,194.5 344.5,194.5C 344.5,199.5 344.5,204.5 344.5,209.5C 339.5,209.5 334.5,209.5 329.5,209.5C 329.5,214.5 329.5,219.5 329.5,224.5C 334.5,224.5 339.5,224.5 344.5,224.5C 344.5,229.5 344.5,234.5 344.5,239.5C 339.5,239.5 334.5,239.5 329.5,239.5C 324.5,239.5 319.5,239.5 314.5,239.5C 314.5,234.5 314.5,229.5 314.5,224.5C 309.5,224.5 304.5,224.5 299.5,224.5C 299.5,219.5 299.5,214.5 299.5,209.5C 294.5,209.5 289.5,209.5 284.5,209.5C 284.5,204.5 284.5,199.5 284.5,194.5C 279.5,194.5 274.5,194.5 269.5,194.5C 269.5,189.5 269.5,184.5 269.5,179.5C 264.5,179.5 259.5,179.5 254.5,179.5C 254.5,174.5 254.5,169.5 254.5,164.5C 249.5,164.5 244.5,164.5 239.5,164.5C 239.5,159.5 239.5,154.5 239.5,149.5C 234.5,149.5 229.5,149.5 224.5,149.5C 224.5,144.5 224.5,139.5 224.5,134.5C 219.5,134.5 214.5,134.5 209.5,134.5C 209.5,129.5 209.5,124.5 209.5,119.5C 204.5,119.5 199.5,119.5 194.5,119.5C 194.5,114.5 194.5,109.5 194.5,104.5C 189.5,104.5 184.5,104.5 179.5,104.5C 179.5,99.5 179.5,94.5 179.5,89.5C 174.5,89.5 169.5,89.5 164.5,89.5C 164.5,84.5 164.5,79.5 164.5,74.5C 159.5,74.5 154.5,74.5 149.5,74.5C 149.5,69.5 149.5,64.5 149.5,59.5C 144.5,59.5 139.5,59.5 134.5,59.5C 134.5,54.5 134.5,49.5 134.5,44.5C 129.5,44.5 124.5,44.5 119.5,44.5C 119.5,39.5 119.5,34.5 119.5,29.5C 114.5,29.5 109.5,29.5 104.5,29.5C 104.5,24.5 104.5,19.5 104.5,14.5C 101.552,14.2229 98.7191,14.5562 96,15.5C 95.79,13.9419 95.29,12.6085 94.5,11.5C 93.7517,7.58304 91.4183,5.08304 87.5,4C 74.6338,0.0379213 69.6338,4.53792 72.5,17.5C 72.631,18.2389 72.4643,18.9056 72,19.5C 71.5983,18.1279 71.0983,16.7946 70.5,15.5C 66.8927,14.5108 63.226,14.1774 59.5,14.5C 59.5,19.5 59.5,24.5 59.5,29.5C 54.5,29.5 49.5,29.5 44.5,29.5C 44.5,34.5 44.5,39.5 44.5,44.5C 39.5,44.5 34.5,44.5 29.5,44.5C 29.5,49.5 29.5,54.5 29.5,59.5C 24.5,59.5 19.5,59.5 14.5,59.5C 14.5,64.5 14.5,69.5 14.5,74.5C 9.5,74.5 4.5,74.5 -0.5,74.5C -0.5,49.5 -0.5,24.5 -0.5,-0.5 Z"/></g>
<g><path style="opacity:1" fill="#070707" d="M 94.5,11.5 C 94.6718,16.1542 93.1718,20.1542 90,23.5C 88.4571,29.2417 90.6238,32.7417 96.5,34C 102.043,35.0515 107.376,36.7181 112.5,39C 113.059,39.7247 113.392,40.5581 113.5,41.5C 112.51,44.6125 111.677,47.6125 111,50.5C 117.24,56.3756 124.406,60.8756 132.5,64C 136.375,67.0827 138.375,71.0827 138.5,76C 140.167,77 141.833,78 143.5,79C 147.8,84.3012 152.466,89.3012 157.5,94C 170.461,100.959 181.628,110.126 191,121.5C 193.006,124.536 193.84,127.869 193.5,131.5C 190.813,131.664 188.146,131.497 185.5,131C 177.48,126.301 169.48,121.634 161.5,117C 158.743,116.218 156.243,116.718 154,118.5C 152.414,120.67 151.08,123.004 150,125.5C 145.305,147.141 140.805,168.808 136.5,190.5C 131.786,216.731 131.286,243.064 135,269.5C 141.721,291.279 150.388,312.279 161,332.5C 181.434,364.961 208.934,389.461 243.5,406C 248.547,405.733 253.047,403.9 257,400.5C 258.085,403.817 259.585,404.151 261.5,401.5C 260.624,400.749 259.624,400.249 258.5,400C 265.112,394.668 272.445,393.001 280.5,395C 282.797,396.263 283.63,398.097 283,400.5C 278.365,404.981 273.365,408.981 268,412.5C 267.493,413.996 267.993,415.163 269.5,416C 274.343,417.864 279.343,419.197 284.5,420C 289.167,422.667 293.833,425.333 298.5,428C 302.902,428.968 306.902,428.135 310.5,425.5C 312.356,428.19 314.689,430.356 317.5,432C 325.224,434.181 332.891,436.514 340.5,439C 344.32,443.187 344.32,447.52 340.5,452C 337.961,453.047 335.295,453.547 332.5,453.5C 326.854,452.672 321.187,452.005 315.5,451.5C 311.522,451.39 307.688,452.057 304,453.5C 300.879,451.022 297.379,449.189 293.5,448C 250.368,447.183 208.701,438.85 168.5,423C 139.926,412.55 113.592,398.217 89.5,380C 58.6491,352.979 36.3157,320.145 22.5,281.5C 13.7321,256.169 7.56539,230.169 4,203.5C 3.31917,166.469 2.6525,129.469 2,92.5C 5.41471,84.0842 11.248,77.9176 19.5,74C 28.7576,72.1522 38.091,70.8188 47.5,70C 41.8213,69.8024 36.1547,69.8024 30.5,70C 27.0973,64.623 28.4306,60.623 34.5,58C 39.8333,57.6667 45.1667,57.3333 50.5,57C 55.0935,54.8409 57.7602,51.1742 58.5,46C 57.7821,43.7825 57.2821,41.6159 57,39.5C 63.7577,36.023 70.4244,32.3563 77,28.5C 77.21,24.186 75.71,20.5194 72.5,17.5C 69.6338,4.53792 74.6338,0.0379213 87.5,4C 91.4183,5.08304 93.7517,7.58304 94.5,11.5 Z"/></g>
<g><path style="opacity:1" fill="#e6e6e6" d="M 80.5,4.5 C 87.5,4.16667 90.8333,7.5 90.5,14.5C 85.7279,13.9072 81.0612,12.9072 76.5,11.5C 76.6602,13.1992 76.4935,14.8659 76,16.5C 73.8212,11.1813 75.3212,7.18127 80.5,4.5 Z"/></g>
<g><path style="opacity:1" fill="#e1e1e1" d="M 91.5,37.5 C 94.7977,37.0162 97.4643,38.0162 99.5,40.5C 97.5787,41.641 95.5787,41.8077 93.5,41C 92.0267,40.2904 91.3601,39.1238 91.5,37.5 Z"/></g>
<g><path style="opacity:1" fill="#e2e2e2" d="M 69.5,55.5 C 75.1764,55.3339 80.8431,55.5006 86.5,56C 88.845,57.7241 89.345,59.5574 88,61.5C 81.4811,58.5488 74.6478,57.0488 67.5,57C 68.4158,56.7216 69.0825,56.2216 69.5,55.5 Z"/></g>
<g><path style="opacity:1" fill="#f0f0f0" d="M 91.5,48.5 C 96.8843,50.9495 101.718,54.2829 106,58.5C 108.245,62.3832 107.745,63.0499 104.5,60.5C 103.223,68.5943 99.7233,69.5943 94,63.5C 91.066,58.7839 90.2326,53.7839 91.5,48.5 Z"/></g>
<g><path style="opacity:1" fill="#f0f0f0" d="M 72.5,17.5 C 75.71,20.5194 77.21,24.186 77,28.5C 70.4244,32.3563 63.7577,36.023 57,39.5C 57.2821,41.6159 57.7821,43.7825 58.5,46C 57.7602,51.1742 55.0935,54.8409 50.5,57C 45.1667,57.3333 39.8333,57.6667 34.5,58C 28.4306,60.623 27.0973,64.623 30.5,70C 36.1547,69.8024 41.8213,69.8024 47.5,70C 38.091,70.8188 28.7576,72.1522 19.5,74C 11.248,77.9176 5.41471,84.0842 2,92.5C 2.6525,129.469 3.31917,166.469 4,203.5C 7.56539,230.169 13.7321,256.169 22.5,281.5C 21.596,282.209 21.2627,283.209 21.5,284.5C 19.1667,284.5 16.8333,284.5 14.5,284.5C 14.5,279.5 14.5,274.5 14.5,269.5C 9.5,269.5 4.5,269.5 -0.5,269.5C -0.5,204.5 -0.5,139.5 -0.5,74.5C 4.5,74.5 9.5,74.5 14.5,74.5C 14.5,69.5 14.5,64.5 14.5,59.5C 19.5,59.5 24.5,59.5 29.5,59.5C 29.5,54.5 29.5,49.5 29.5,44.5C 34.5,44.5 39.5,44.5 44.5,44.5C 44.5,39.5 44.5,34.5 44.5,29.5C 49.5,29.5 54.5,29.5 59.5,29.5C 59.5,24.5 59.5,19.5 59.5,14.5C 63.226,14.1774 66.8927,14.5108 70.5,15.5C 71.0983,16.7946 71.5983,18.1279 72,19.5C 72.4643,18.9056 72.631,18.2389 72.5,17.5 Z"/></g>
<g><path style="opacity:1" fill="#f2f2f2" d="M 56.5,70.5 C 77.0383,69.4934 97.705,69.8268 118.5,71.5C 118.756,73.9124 117.756,75.5791 115.5,76.5C 116.695,78.7513 117.695,81.0846 118.5,83.5C 117.998,84.521 117.332,84.6877 116.5,84C 115.333,82.1667 114.167,80.3333 113,78.5C 112.765,82.993 110.599,85.993 106.5,87.5C 104.971,87.4712 103.804,86.8045 103,85.5C 101.691,81.9009 100.191,78.4009 98.5,75C 95.2096,74.4106 93.7096,75.9106 94,79.5C 91.2217,76.1929 87.7217,74.0262 83.5,73C 74.5967,71.1259 65.5967,70.2926 56.5,70.5 Z"/></g>
<g><path style="opacity:1" fill="#f2f2f2" d="M 22.5,86.5 C 27.9569,86.2455 33.2903,86.9122 38.5,88.5C 36.4783,95.6985 39.145,100.532 46.5,103C 48.4727,103.495 50.4727,103.662 52.5,103.5C 52.067,100.715 50.7337,98.3813 48.5,96.5C 49.8333,95.8333 51.1667,95.1667 52.5,94.5C 50.8333,92.5 49.1667,90.5 47.5,88.5C 48.6667,88.1667 49.8333,87.8333 51,87.5C 73.7939,89.1378 96.6272,89.9711 119.5,90C 134.655,90.9557 149.321,94.1223 163.5,99.5C 164.799,102.577 164.632,105.577 163,108.5C 159.703,111.567 155.869,113.733 151.5,115C 141.833,115.667 132.167,115.667 122.5,115C 110.497,113.099 98.4972,111.266 86.5,109.5C 76.6209,110.516 66.7876,111.849 57,113.5C 55.1667,113.167 53.3333,112.833 51.5,112.5C 52.7468,110.958 52.7468,109.458 51.5,108C 47.5092,107.358 43.5092,106.858 39.5,106.5C 38.689,111.549 36.0223,112.715 31.5,110C 27.6442,107.285 25.3109,103.619 24.5,99C 25.1813,95.228 27.5146,93.5614 31.5,94C 26.8341,90.5231 22.3341,90.6898 18,94.5C 15.0231,99.095 13.0231,104.095 12,109.5C 5.94148,97.1397 9.44148,89.473 22.5,86.5 Z"/></g>
<g><path style="opacity:1" fill="#111111" d="M 88.5,92.5 C 95.9475,91.8077 102.947,93.141 109.5,96.5C 105.435,98.1435 101.769,97.6435 98.5,95C 94.8333,94.6667 91.1667,94.3333 87.5,94C 88.056,93.6174 88.3893,93.1174 88.5,92.5 Z"/></g>
<g><path style="opacity:1" fill="#0d0d0d" d="M 130.5,92.5 C 135.308,94.0733 136.641,97.24 134.5,102C 127.03,101.554 125.696,98.3869 130.5,92.5 Z"/></g>
<g><path style="opacity:1" fill="#171717" d="M 72.5,94.5 C 77.1097,94.1198 79.7764,96.1198 80.5,100.5C 75.549,101.371 72.8824,99.3713 72.5,94.5 Z"/></g>
<g><path style="opacity:1" fill="#474747" d="M 83.5,94.5 C 85.337,94.6395 85.6704,95.3061 84.5,96.5C 83.7025,96.0431 83.3691,95.3764 83.5,94.5 Z"/></g>
<g><path style="opacity:1" fill="#111111" d="M 64.5,97.5 C 70.522,98.4838 73.522,102.15 73.5,108.5C 72.448,108.649 71.448,108.483 70.5,108C 67.9841,105.317 65.3174,102.817 62.5,100.5C 63.1925,99.4822 63.8592,98.4822 64.5,97.5 Z"/></g>
<g><path style="opacity:1" fill="#242424" d="M 142.5,98.5 C 144.288,98.2148 145.955,98.5481 147.5,99.5C 147.333,99.8333 147.167,100.167 147,100.5C 144.101,100.977 141.434,101.977 139,103.5C 139.112,101.203 140.278,99.5361 142.5,98.5 Z"/></g>
<g><path style="opacity:1" fill="#eeeeee" d="M 19.5,108.5 C 20.9778,108.238 22.3112,108.571 23.5,109.5C 22.8333,109.833 22.1667,110.167 21.5,110.5C 20.2867,110.253 19.62,109.586 19.5,108.5 Z"/></g>
<g><path style="opacity:1" fill="#d5d5d5" d="M 69.5,120.5 C 70.2506,119.427 71.2506,119.26 72.5,120C 71.6477,121.728 70.6477,121.895 69.5,120.5 Z"/></g>
<g><path style="opacity:1" fill="#ececec" d="M 31.5,126.5 C 34.2257,126.264 36.559,127.097 38.5,129C 34.2987,132.873 31.9653,132.039 31.5,126.5 Z"/></g>
<g><path style="opacity:1" fill="#989898" d="M 12.5,128.5 C 14.337,128.639 14.6704,129.306 13.5,130.5C 12.7025,130.043 12.3691,129.376 12.5,128.5 Z"/></g>
<g><path style="opacity:1" fill="#e1e1e1" d="M 45.5,125.5 C 45.56,124.957 45.8933,124.624 46.5,124.5C 50.1667,126 53.8333,127.5 57.5,129C 60.3264,131.522 59.9931,133.522 56.5,135C 52.1628,136.418 48.8295,135.252 46.5,131.5C 47,131.167 47.5,130.833 48,130.5C 49.7983,131.504 51.6316,132.004 53.5,132C 50.986,129.585 48.3194,127.419 45.5,125.5 Z"/></g>
<g><path style="opacity:1" fill="#fcfcfc" d="M 39.5,135.5 C 40.3864,134.224 41.3864,134.224 42.5,135.5C 41.5754,136.562 40.5754,136.562 39.5,135.5 Z"/></g>
<g><path style="opacity:1" fill="#dddddd" d="M 34.5,135.5 C 36.4646,135.948 36.7979,136.948 35.5,138.5C 33.4807,137.867 33.1474,136.867 34.5,135.5 Z"/></g>
<g><path style="opacity:1" fill="#dfdfdf" d="M 25.5,144.5 C 28.8223,143.141 31.489,144.141 33.5,147.5C 32.277,148.614 30.9437,148.781 29.5,148C 28.2949,146.624 26.9616,145.458 25.5,144.5 Z"/></g>
<g><path style="opacity:1" fill="#f7f7f7" d="M 12.5,145.5 C 13.1174,145.611 13.6174,145.944 14,146.5C 14.6667,148.5 14.6667,150.5 14,152.5C 11.4341,150.573 10.9341,148.24 12.5,145.5 Z"/></g>
<g><path style="opacity:1" fill="#e9e9e9" d="M 24.5,149.5 C 28.713,149.699 30.0464,151.699 28.5,155.5C 25.663,154.491 24.3297,152.491 24.5,149.5 Z"/></g>
<g><path style="opacity:1" fill="#c6c6c6" d="M 22.5,155.5 C 25.0014,155.826 26.1681,157.159 26,159.5C 23.9286,158.897 22.7619,157.564 22.5,155.5 Z"/></g>
<g><path style="opacity:1" fill="#ebebeb" d="M 14.5,184.5 C 13.9937,179.346 13.327,174.346 12.5,169.5C 12.1826,166.428 12.5159,163.428 13.5,160.5C 15.8786,165.367 16.8786,170.534 16.5,176C 16.4809,179.252 15.8142,182.085 14.5,184.5 Z"/></g>
<g><path style="opacity:1" fill="#f4f4f4" d="M 101.5,120.5 C 106.041,122.688 110.541,125.021 115,127.5C 115.5,127.333 116,127.167 116.5,127C 114.649,125.316 112.982,123.483 111.5,121.5C 119.389,120.214 127.222,120.548 135,122.5C 137.808,121.614 140.641,121.447 143.5,122C 146.987,126.427 147.487,131.26 145,136.5C 142.97,142.894 140.136,148.894 136.5,154.5C 138.479,157.91 138.979,161.577 138,165.5C 136.324,171.362 134.157,177.029 131.5,182.5C 132.383,183.548 133.05,184.715 133.5,186C 132.531,190.438 130.865,194.605 128.5,198.5C 132.276,201.46 132.11,204.46 128,207.5C 127.035,205.74 125.868,205.406 124.5,206.5C 122.173,209.137 121.007,212.137 121,215.5C 122.899,212.137 125.732,210.137 129.5,209.5C 127.397,226.473 127.063,243.473 128.5,260.5C 125.157,260.501 122.823,262.001 121.5,265C 127.069,269.017 129.569,274.517 129,281.5C 130,279.833 131,278.167 132,276.5C 137.662,286.761 141.662,297.761 144,309.5C 146.577,315.652 149.41,321.652 152.5,327.5C 151.689,328.216 151.022,329.05 150.5,330C 153.895,342.107 160.561,352.107 170.5,360C 175.393,363.891 180.56,367.391 186,370.5C 190.315,383.656 199.149,391.656 212.5,394.5C 211.047,396.644 211.38,398.477 213.5,400C 220.213,403.683 226.546,407.85 232.5,412.5C 226.437,414.268 220.77,413.434 215.5,410C 204.167,402 192.833,394 181.5,386C 178.289,384.652 174.956,383.818 171.5,383.5C 167.793,384.184 164.126,384.684 160.5,385C 162.5,383.667 164.5,382.333 166.5,381C 167.696,380.346 167.696,379.846 166.5,379.5C 162.213,382.493 157.546,383.993 152.5,384C 151.199,380.435 149.699,376.935 148,373.5C 145.527,372.88 143.027,372.214 140.5,371.5C 138.833,369.667 137.167,367.833 135.5,366C 136.328,365.085 137.328,364.419 138.5,364C 136.993,363.163 136.493,361.996 137,360.5C 138.771,359.696 140.271,358.529 141.5,357C 131.907,354.455 123.407,349.955 116,343.5C 114.659,340.978 113.826,338.311 113.5,335.5C 117.781,336.136 121.781,337.636 125.5,340C 120.562,341.51 120.229,343.843 124.5,347C 128.722,350.111 133.389,351.111 138.5,350C 134.126,342.085 129.626,334.252 125,326.5C 111.711,313.699 98.0444,301.365 84,289.5C 81.6568,285.985 82.1568,285.152 85.5,287C 90.1337,290.632 94.467,294.632 98.5,299C 106.264,302.923 109.098,300.423 107,291.5C 105.667,285.656 102.167,281.822 96.5,280C 93.0745,275.152 89.4078,270.485 85.5,266C 88.1407,266.155 90.8074,266.655 93.5,267.5C 99.1902,265.973 101.024,262.306 99,256.5C 96.6667,251.833 94.3333,247.167 92,242.5C 92.6076,247.83 92.441,253.163 91.5,258.5C 90.251,253.104 88.751,247.771 87,242.5C 85.3333,241.167 83.6667,239.833 82,238.5C 80.7316,240.717 79.2316,242.717 77.5,244.5C 76.5481,242.955 76.2148,241.288 76.5,239.5C 74.4727,239.662 72.4727,239.495 70.5,239C 69.8742,238.25 69.3742,237.416 69,236.5C 68.918,231.495 68.918,226.495 69,221.5C 66.1807,216.532 63.3473,211.532 60.5,206.5C 60.8333,206.167 61.1667,205.833 61.5,205.5C 64.3301,209.839 68.1634,211.506 73,210.5C 73.9503,204.066 72.2836,198.4 68,193.5C 65.2458,195.127 62.4125,196.627 59.5,198C 58.2161,198.684 57.0495,198.517 56,197.5C 57.0447,192.414 58.378,187.414 60,182.5C 58.4905,183.09 56.9905,183.756 55.5,184.5C 54.0787,188.028 53.412,191.694 53.5,195.5C 51.323,195.414 49.323,194.747 47.5,193.5C 47.1667,194 46.8333,194.5 46.5,195C 48.8431,200.853 51.8431,206.353 55.5,211.5C 52.4357,212.113 49.1024,212.613 45.5,213C 44.8045,207.522 43.9712,202.022 43,196.5C 41.5,193.667 39.3333,191.5 36.5,190C 39.0467,189.564 40.38,188.064 40.5,185.5C 39.3012,181.438 37.3012,177.772 34.5,174.5C 37.5496,171.554 41.0496,169.22 45,167.5C 46.2613,167.759 47.2613,168.426 48,169.5C 49.3116,171.955 50.4782,174.455 51.5,177C 45.0459,177.132 42.8792,180.298 45,186.5C 45.6872,188.555 46.8539,190.221 48.5,191.5C 53.3461,184.356 54.5127,176.689 52,168.5C 49.961,166.126 47.6277,164.126 45,162.5C 43.0624,163.86 41.3957,163.527 40,161.5C 38.5432,158.634 38.2099,155.634 39,152.5C 40.4579,151.253 41.9579,151.253 43.5,152.5C 44.2446,150.253 45.578,148.42 47.5,147C 51.0286,146.378 54.5286,146.545 58,147.5C 60.2073,146.97 62.2073,145.97 64,144.5C 64.3216,140.103 63.8216,135.77 62.5,131.5C 63.3526,125.033 66.3526,123.866 71.5,128C 76.7091,128.866 81.7091,128.199 86.5,126C 87.217,124.348 87.5504,122.848 87.5,121.5C 91.257,124.067 95.257,124.733 99.5,123.5C 100.425,122.643 101.092,121.643 101.5,120.5 Z"/></g>
<g><path style="opacity:1" fill="#151515" d="M 56.5,159.5 C 57.753,162.59 59.9197,164.923 63,166.5C 65.4058,170.88 64.4058,174.213 60,176.5C 58.7387,176.241 57.7387,175.574 57,174.5C 54.5226,170.39 52.856,166.056 52,161.5C 57.9634,169.954 59.4634,169.287 56.5,159.5 Z"/></g>
<g><path style="opacity:1" fill="#202020" d="M 71.5,152.5 C 76.9888,154.651 81.6554,157.985 85.5,162.5C 84.9984,163.521 84.3317,163.688 83.5,163C 79.2617,159.583 75.2617,156.083 71.5,152.5 Z"/></g>
<g><path style="opacity:1" fill="#141414" d="M 59.5,156.5 C 64.316,159.151 67.9826,162.984 70.5,168C 68.1913,168.756 66.1913,168.256 64.5,166.5C 62.295,163.423 60.6284,160.09 59.5,156.5 Z"/></g>
<g><path style="opacity:1" fill="#141414" d="M 66.5,153.5 C 74.1348,156.954 78.9681,162.621 81,170.5C 77.2829,167.115 73.2829,164.115 69,161.5C 67.6591,158.978 66.8257,156.311 66.5,153.5 Z"/></g>
<g><path style="opacity:1" fill="#1c1c1c" d="M 88.5,143.5 C 91.7094,144.297 92.2094,145.963 90,148.5C 88.1919,146.967 87.6919,145.3 88.5,143.5 Z"/></g>
<g><path style="opacity:1" fill="#141414" d="M 79.5,140.5 C 80.5711,144.104 82.7377,147.104 86,149.5C 86.5396,151.135 86.0396,152.468 84.5,153.5C 86.124,154.869 86.624,156.536 86,158.5C 83.294,156.129 80.9606,153.463 79,150.5C 79.2012,147.223 79.3679,143.889 79.5,140.5 Z"/></g>
<g><path style="opacity:1" fill="#101010" d="M 134.5,137.5 C 135.649,137.791 136.316,138.624 136.5,140C 135.473,143.369 133.973,146.536 132,149.5C 131.333,150.5 131.333,151.5 132,152.5C 134.333,149.5 136.667,146.5 139,143.5C 138.018,149.82 134.685,154.486 129,157.5C 128.228,157.355 127.561,157.022 127,156.5C 126.696,149.101 129.196,142.768 134.5,137.5 Z"/></g>
<g><path style="opacity:1" fill="#f3f3f3" d="M 94.5,11.5 C 95.29,12.6085 95.79,13.9419 96,15.5C 98.7191,14.5562 101.552,14.2229 104.5,14.5C 104.5,19.5 104.5,24.5 104.5,29.5C 109.5,29.5 114.5,29.5 119.5,29.5C 119.5,34.5 119.5,39.5 119.5,44.5C 124.5,44.5 129.5,44.5 134.5,44.5C 134.5,49.5 134.5,54.5 134.5,59.5C 139.5,59.5 144.5,59.5 149.5,59.5C 149.5,64.5 149.5,69.5 149.5,74.5C 154.5,74.5 159.5,74.5 164.5,74.5C 164.5,79.5 164.5,84.5 164.5,89.5C 169.5,89.5 174.5,89.5 179.5,89.5C 179.5,94.5 179.5,99.5 179.5,104.5C 184.5,104.5 189.5,104.5 194.5,104.5C 194.5,109.5 194.5,114.5 194.5,119.5C 199.5,119.5 204.5,119.5 209.5,119.5C 209.5,124.5 209.5,129.5 209.5,134.5C 214.5,134.5 219.5,134.5 224.5,134.5C 224.5,139.5 224.5,144.5 224.5,149.5C 229.5,149.5 234.5,149.5 239.5,149.5C 239.5,154.5 239.5,159.5 239.5,164.5C 244.5,164.5 249.5,164.5 254.5,164.5C 254.5,169.5 254.5,174.5 254.5,179.5C 259.5,179.5 264.5,179.5 269.5,179.5C 269.5,184.5 269.5,189.5 269.5,194.5C 274.5,194.5 279.5,194.5 284.5,194.5C 284.5,199.5 284.5,204.5 284.5,209.5C 289.5,209.5 294.5,209.5 299.5,209.5C 299.5,214.5 299.5,219.5 299.5,224.5C 304.5,224.5 309.5,224.5 314.5,224.5C 314.5,229.5 314.5,234.5 314.5,239.5C 319.5,239.5 324.5,239.5 329.5,239.5C 329.5,244.5 329.5,249.5 329.5,254.5C 334.5,254.5 339.5,254.5 344.5,254.5C 344.5,259.5 344.5,264.5 344.5,269.5C 339.5,269.5 334.5,269.5 329.5,269.5C 329.5,274.5 329.5,279.5 329.5,284.5C 324.5,284.5 319.5,284.5 314.5,284.5C 314.5,279.5 314.5,274.5 314.5,269.5C 309.5,269.5 304.5,269.5 299.5,269.5C 299.5,264.5 299.5,259.5 299.5,254.5C 294.5,254.5 289.5,254.5 284.5,254.5C 284.5,249.5 284.5,244.5 284.5,239.5C 279.5,239.5 274.5,239.5 269.5,239.5C 269.5,234.5 269.5,229.5 269.5,224.5C 264.5,224.5 259.5,224.5 254.5,224.5C 254.5,219.5 254.5,214.5 254.5,209.5C 249.5,209.5 244.5,209.5 239.5,209.5C 239.5,204.5 239.5,199.5 239.5,194.5C 234.5,194.5 229.5,194.5 224.5,194.5C 224.5,189.5 224.5,184.5 224.5,179.5C 219.5,179.5 214.5,179.5 209.5,179.5C 209.5,174.5 209.5,169.5 209.5,164.5C 204.5,164.5 199.5,164.5 194.5,164.5C 194.5,159.5 194.5,154.5 194.5,149.5C 179.5,149.5 164.5,149.5 149.5,149.5C 149.5,154.5 149.5,159.5 149.5,164.5C 154.5,164.5 159.5,164.5 164.5,164.5C 164.5,169.5 164.5,174.5 164.5,179.5C 169.5,179.5 174.5,179.5 179.5,179.5C 179.5,184.5 179.5,189.5 179.5,194.5C 184.5,194.5 189.5,194.5 194.5,194.5C 194.5,199.5 194.5,204.5 194.5,209.5C 199.5,209.5 204.5,209.5 209.5,209.5C 209.5,214.5 209.5,219.5 209.5,224.5C 214.5,224.5 219.5,224.5 224.5,224.5C 224.5,229.5 224.5,234.5 224.5,239.5C 229.5,239.5 234.5,239.5 239.5,239.5C 239.5,244.5 239.5,249.5 239.5,254.5C 244.5,254.5 249.5,254.5 254.5,254.5C 254.5,259.5 254.5,264.5 254.5,269.5C 259.5,269.5 264.5,269.5 269.5,269.5C 269.5,274.5 269.5,279.5 269.5,284.5C 274.5,284.5 279.5,284.5 284.5,284.5C 284.5,289.5 284.5,294.5 284.5,299.5C 289.5,299.5 294.5,299.5 299.5,299.5C 299.5,304.5 299.5,309.5 299.5,314.5C 304.5,314.5 309.5,314.5 314.5,314.5C 314.5,319.5 314.5,324.5 314.5,329.5C 319.5,329.5 324.5,329.5 329.5,329.5C 329.5,334.5 329.5,339.5 329.5,344.5C 334.5,344.5 339.5,344.5 344.5,344.5C 344.5,349.5 344.5,354.5 344.5,359.5C 339.5,359.5 334.5,359.5 329.5,359.5C 329.5,364.5 329.5,369.5 329.5,374.5C 324.5,374.5 319.5,374.5 314.5,374.5C 314.5,369.5 314.5,364.5 314.5,359.5C 309.5,359.5 304.5,359.5 299.5,359.5C 299.5,354.5 299.5,349.5 299.5,344.5C 294.5,344.5 289.5,344.5 284.5,344.5C 284.5,339.5 284.5,334.5 284.5,329.5C 279.5,329.5 274.5,329.5 269.5,329.5C 269.5,324.5 269.5,319.5 269.5,314.5C 264.5,314.5 259.5,314.5 254.5,314.5C 254.5,309.5 254.5,304.5 254.5,299.5C 249.5,299.5 244.5,299.5 239.5,299.5C 239.5,294.5 239.5,289.5 239.5,284.5C 234.5,284.5 229.5,284.5 224.5,284.5C 224.5,279.5 224.5,274.5 224.5,269.5C 219.5,269.5 214.5,269.5 209.5,269.5C 209.5,264.5 209.5,259.5 209.5,254.5C 204.5,254.5 199.5,254.5 194.5,254.5C 194.5,249.5 194.5,244.5 194.5,239.5C 189.5,239.5 184.5,239.5 179.5,239.5C 179.5,234.5 179.5,229.5 179.5,224.5C 174.5,224.5 169.5,224.5 164.5,224.5C 164.5,219.5 164.5,214.5 164.5,209.5C 159.5,209.5 154.5,209.5 149.5,209.5C 149.5,204.5 149.5,199.5 149.5,194.5C 145.5,194.5 141.5,194.5 137.5,194.5C 137.768,192.901 137.434,191.568 136.5,190.5C 140.805,168.808 145.305,147.141 150,125.5C 151.08,123.004 152.414,120.67 154,118.5C 156.243,116.718 158.743,116.218 161.5,117C 169.48,121.634 177.48,126.301 185.5,131C 188.146,131.497 190.813,131.664 193.5,131.5C 193.84,127.869 193.006,124.536 191,121.5C 181.628,110.126 170.461,100.959 157.5,94C 152.466,89.3012 147.8,84.3012 143.5,79C 141.833,78 140.167,77 138.5,76C 138.375,71.0827 136.375,67.0827 132.5,64C 124.406,60.8756 117.24,56.3756 111,50.5C 111.677,47.6125 112.51,44.6125 113.5,41.5C 113.392,40.5581 113.059,39.7247 112.5,39C 107.376,36.7181 102.043,35.0515 96.5,34C 90.6238,32.7417 88.4571,29.2417 90,23.5C 93.1718,20.1542 94.6718,16.1542 94.5,11.5 Z"/></g>
<g><path style="opacity:1" fill="#ececec" d="M 182.5,118.5 C 188.817,119.149 191.15,122.482 189.5,128.5C 187.178,125.175 184.845,121.842 182.5,118.5 Z"/></g>
<g><path style="opacity:1" fill="#6a6a6a" d="M 118.5,167.5 C 120.238,169.119 120.738,171.119 120,173.5C 118.872,171.655 118.372,169.655 118.5,167.5 Z"/></g>
<g><path style="opacity:1" fill="#1f1f1f" d="M 65.5,173.5 C 67.337,173.639 67.6704,174.306 66.5,175.5C 65.7025,175.043 65.3691,174.376 65.5,173.5 Z"/></g>
<g><path style="opacity:1" fill="#191919" d="M 70.5,173.5 C 72.0986,174.799 72.5986,176.465 72,178.5C 70.7308,177.095 70.2308,175.429 70.5,173.5 Z"/></g>
<g><path style="opacity:1" fill="#6a6a6a" d="M 12.5,169.5 C 13.327,174.346 13.9937,179.346 14.5,184.5C 12.9215,180.749 11.9215,176.749 11.5,172.5C 12.404,171.791 12.7373,170.791 12.5,169.5 Z"/></g>
<g><path style="opacity:1" fill="#e8e8e8" d="M 11.5,172.5 C 11.9215,176.749 12.9215,180.749 14.5,184.5C 15.1981,190.467 15.6981,196.467 16,202.5C 16.3007,205.974 17.134,209.308 18.5,212.5C 18.1543,213.696 17.6543,213.696 17,212.5C 14.7813,208.729 13.1146,204.729 12,200.5C 11.0579,189.573 9.5579,178.739 7.5,168C 7.83333,166.5 8.16667,165 8.5,163.5C 10.4944,166.15 11.4944,169.15 11.5,172.5 Z"/></g>
<g><path style="opacity:1" fill="#111111" d="M 76.5,180.5 C 77.6494,186.032 78.8161,191.699 80,197.5C 80.3333,197.833 80.6667,198.167 81,198.5C 81.1667,197.167 81.3333,195.833 81.5,194.5C 80.7762,191.173 80.6096,187.839 81,184.5C 85.017,190.369 88.1837,196.702 90.5,203.5C 87.3162,204.203 85.8162,206.203 86,209.5C 84.5219,206.007 82.5219,205.674 80,208.5C 77.9125,206.255 76.5792,203.588 76,200.5C 75.2869,193.797 75.4536,187.13 76.5,180.5 Z"/></g>
<g><path style="opacity:1" fill="#c8c8c8" d="M 31.5,184.5 C 32.8488,183.203 34.1821,183.37 35.5,185C 34.0715,185.579 32.7382,185.412 31.5,184.5 Z"/></g>
<g><path style="opacity:1" fill="#252525" d="M 64.5,183.5 C 65.844,185.185 65.6773,186.852 64,188.5C 63.3603,186.735 63.5269,185.068 64.5,183.5 Z"/></g>
<g><path style="opacity:1" fill="#525252" d="M 100.5,184.5 C 101.709,186.435 101.542,188.435 100,190.5C 99.5099,188.455 99.6765,186.455 100.5,184.5 Z"/></g>
<g><path style="opacity:1" fill="#0e0e0e" d="M 109.5,188.5 C 110.991,191.638 112.657,194.804 114.5,198C 113.5,200.333 112.5,202.667 111.5,205C 113.425,208.741 112.425,211.908 108.5,214.5C 103.288,205.712 103.621,197.046 109.5,188.5 Z"/></g>
<g><path style="opacity:1" fill="#1a1a1a" d="M 71.5,189.5 C 73.6157,191.088 73.949,193.088 72.5,195.5C 70.261,193.867 69.9277,191.867 71.5,189.5 Z"/></g>
<g><path style="opacity:1" fill="#f7f7f7" d="M 329.5,-0.5 C 335.5,-0.5 341.5,-0.5 347.5,-0.5C 347.5,152.167 347.5,304.833 347.5,457.5C 231.5,457.5 115.5,457.5 -0.5,457.5C -0.5,394.833 -0.5,332.167 -0.5,269.5C 4.5,269.5 9.5,269.5 14.5,269.5C 14.5,274.5 14.5,279.5 14.5,284.5C 16.8333,284.5 19.1667,284.5 21.5,284.5C 21.2627,283.209 21.596,282.209 22.5,281.5C 36.3157,320.145 58.6491,352.979 89.5,380C 113.592,398.217 139.926,412.55 168.5,423C 208.701,438.85 250.368,447.183 293.5,448C 297.379,449.189 300.879,451.022 304,453.5C 307.688,452.057 311.522,451.39 315.5,451.5C 321.187,452.005 326.854,452.672 332.5,453.5C 335.295,453.547 337.961,453.047 340.5,452C 344.32,447.52 344.32,443.187 340.5,439C 332.891,436.514 325.224,434.181 317.5,432C 314.689,430.356 312.356,428.19 310.5,425.5C 306.902,428.135 302.902,428.968 298.5,428C 293.833,425.333 289.167,422.667 284.5,420C 279.343,419.197 274.343,417.864 269.5,416C 267.993,415.163 267.493,413.996 268,412.5C 273.365,408.981 278.365,404.981 283,400.5C 283.63,398.097 282.797,396.263 280.5,395C 272.445,393.001 265.112,394.668 258.5,400C 259.624,400.249 260.624,400.749 261.5,401.5C 259.585,404.151 258.085,403.817 257,400.5C 253.047,403.9 248.547,405.733 243.5,406C 208.934,389.461 181.434,364.961 161,332.5C 150.388,312.279 141.721,291.279 135,269.5C 131.286,243.064 131.786,216.731 136.5,190.5C 137.434,191.568 137.768,192.901 137.5,194.5C 141.5,194.5 145.5,194.5 149.5,194.5C 149.5,199.5 149.5,204.5 149.5,209.5C 154.5,209.5 159.5,209.5 164.5,209.5C 164.5,214.5 164.5,219.5 164.5,224.5C 169.5,224.5 174.5,224.5 179.5,224.5C 179.5,229.5 179.5,234.5 179.5,239.5C 184.5,239.5 189.5,239.5 194.5,239.5C 194.5,244.5 194.5,249.5 194.5,254.5C 199.5,254.5 204.5,254.5 209.5,254.5C 209.5,259.5 209.5,264.5 209.5,269.5C 214.5,269.5 219.5,269.5 224.5,269.5C 224.5,274.5 224.5,279.5 224.5,284.5C 229.5,284.5 234.5,284.5 239.5,284.5C 239.5,289.5 239.5,294.5 239.5,299.5C 244.5,299.5 249.5,299.5 254.5,299.5C 254.5,304.5 254.5,309.5 254.5,314.5C 259.5,314.5 264.5,314.5 269.5,314.5C 269.5,319.5 269.5,324.5 269.5,329.5C 274.5,329.5 279.5,329.5 284.5,329.5C 284.5,334.5 284.5,339.5 284.5,344.5C 289.5,344.5 294.5,344.5 299.5,344.5C 299.5,349.5 299.5,354.5 299.5,359.5C 304.5,359.5 309.5,359.5 314.5,359.5C 314.5,364.5 314.5,369.5 314.5,374.5C 319.5,374.5 324.5,374.5 329.5,374.5C 329.5,369.5 329.5,364.5 329.5,359.5C 334.5,359.5 339.5,359.5 344.5,359.5C 344.5,354.5 344.5,349.5 344.5,344.5C 339.5,344.5 334.5,344.5 329.5,344.5C 329.5,339.5 329.5,334.5 329.5,329.5C 324.5,329.5 319.5,329.5 314.5,329.5C 314.5,324.5 314.5,319.5 314.5,314.5C 309.5,314.5 304.5,314.5 299.5,314.5C 299.5,309.5 299.5,304.5 299.5,299.5C 294.5,299.5 289.5,299.5 284.5,299.5C 284.5,294.5 284.5,289.5 284.5,284.5C 279.5,284.5 274.5,284.5 269.5,284.5C 269.5,279.5 269.5,274.5 269.5,269.5C 264.5,269.5 259.5,269.5 254.5,269.5C 254.5,264.5 254.5,259.5 254.5,254.5C 249.5,254.5 244.5,254.5 239.5,254.5C 239.5,249.5 239.5,244.5 239.5,239.5C 234.5,239.5 229.5,239.5 224.5,239.5C 224.5,234.5 224.5,229.5 224.5,224.5C 219.5,224.5 214.5,224.5 209.5,224.5C 209.5,219.5 209.5,214.5 209.5,209.5C 204.5,209.5 199.5,209.5 194.5,209.5C 194.5,204.5 194.5,199.5 194.5,194.5C 189.5,194.5 184.5,194.5 179.5,194.5C 179.5,189.5 179.5,184.5 179.5,179.5C 174.5,179.5 169.5,179.5 164.5,179.5C 164.5,174.5 164.5,169.5 164.5,164.5C 159.5,164.5 154.5,164.5 149.5,164.5C 149.5,159.5 149.5,154.5 149.5,149.5C 164.5,149.5 179.5,149.5 194.5,149.5C 194.5,154.5 194.5,159.5 194.5,164.5C 199.5,164.5 204.5,164.5 209.5,164.5C 209.5,169.5 209.5,174.5 209.5,179.5C 214.5,179.5 219.5,179.5 224.5,179.5C 224.5,184.5 224.5,189.5 224.5,194.5C 229.5,194.5 234.5,194.5 239.5,194.5C 239.5,199.5 239.5,204.5 239.5,209.5C 244.5,209.5 249.5,209.5 254.5,209.5C 254.5,214.5 254.5,219.5 254.5,224.5C 259.5,224.5 264.5,224.5 269.5,224.5C 269.5,229.5 269.5,234.5 269.5,239.5C 274.5,239.5 279.5,239.5 284.5,239.5C 284.5,244.5 284.5,249.5 284.5,254.5C 289.5,254.5 294.5,254.5 299.5,254.5C 299.5,259.5 299.5,264.5 299.5,269.5C 304.5,269.5 309.5,269.5 314.5,269.5C 314.5,274.5 314.5,279.5 314.5,284.5C 319.5,284.5 324.5,284.5 329.5,284.5C 329.5,279.5 329.5,274.5 329.5,269.5C 334.5,269.5 339.5,269.5 344.5,269.5C 344.5,264.5 344.5,259.5 344.5,254.5C 339.5,254.5 334.5,254.5 329.5,254.5C 329.5,249.5 329.5,244.5 329.5,239.5C 334.5,239.5 339.5,239.5 344.5,239.5C 344.5,234.5 344.5,229.5 344.5,224.5C 339.5,224.5 334.5,224.5 329.5,224.5C 329.5,219.5 329.5,214.5 329.5,209.5C 334.5,209.5 339.5,209.5 344.5,209.5C 344.5,204.5 344.5,199.5 344.5,194.5C 339.5,194.5 334.5,194.5 329.5,194.5C 329.5,189.5 329.5,184.5 329.5,179.5C 334.5,179.5 339.5,179.5 344.5,179.5C 344.5,174.5 344.5,169.5 344.5,164.5C 339.5,164.5 334.5,164.5 329.5,164.5C 329.5,159.5 329.5,154.5 329.5,149.5C 334.5,149.5 339.5,149.5 344.5,149.5C 344.5,144.5 344.5,139.5 344.5,134.5C 339.5,134.5 334.5,134.5 329.5,134.5C 329.5,129.5 329.5,124.5 329.5,119.5C 334.5,119.5 339.5,119.5 344.5,119.5C 344.5,114.5 344.5,109.5 344.5,104.5C 339.5,104.5 334.5,104.5 329.5,104.5C 329.5,99.5 329.5,94.5 329.5,89.5C 334.5,89.5 339.5,89.5 344.5,89.5C 344.5,84.5 344.5,79.5 344.5,74.5C 339.5,74.5 334.5,74.5 329.5,74.5C 329.5,69.5 329.5,64.5 329.5,59.5C 334.5,59.5 339.5,59.5 344.5,59.5C 344.5,54.5 344.5,49.5 344.5,44.5C 339.5,44.5 334.5,44.5 329.5,44.5C 329.5,39.5 329.5,34.5 329.5,29.5C 334.5,29.5 339.5,29.5 344.5,29.5C 344.5,24.5 344.5,19.5 344.5,14.5C 339.5,14.5 334.5,14.5 329.5,14.5C 329.5,9.5 329.5,4.5 329.5,-0.5 Z"/></g>
<g><path style="opacity:1" fill="#e1e1e1" d="M 31.5,194.5 C 33.6055,193.181 35.6055,193.514 37.5,195.5C 35.2432,196.77 33.2432,196.436 31.5,194.5 Z"/></g>
<g><path style="opacity:1" fill="#2f2f2f" d="M 123.5,190.5 C 124.097,190.735 124.43,191.235 124.5,192C 123.804,193.893 122.97,195.726 122,197.5C 121.761,195.041 122.261,192.707 123.5,190.5 Z"/></g>
<g><path style="opacity:1" fill="#262626" d="M 126.5,193.5 C 126.622,196.657 125.455,199.657 123,202.5C 123.559,199.363 124.726,196.363 126.5,193.5 Z"/></g>
<g><path style="opacity:1" fill="#dedede" d="M 54.5,200.5 C 56.4646,200.948 56.7979,201.948 55.5,203.5C 54.6143,202.675 54.281,201.675 54.5,200.5 Z"/></g>
<g><path style="opacity:1" fill="#f2f2f2" d="M 42.5,214.5 C 48.0882,217.421 53.4215,220.754 58.5,224.5C 59.4419,224.392 60.2753,224.059 61,223.5C 61.7284,220.77 61.5617,218.103 60.5,215.5C 61.5,214.167 62.5,214.167 63.5,215.5C 64.0113,221.454 64.178,227.454 64,233.5C 67.731,237.186 68.8976,241.519 67.5,246.5C 59.314,239.146 50.9807,231.98 42.5,225C 42.7461,221.651 42.7461,218.151 42.5,214.5 Z"/></g>
<g><path style="opacity:1" fill="#595959" d="M 123.5,224.5 C 124.465,225.721 124.298,227.054 123,228.5C 122.421,227.072 122.588,225.738 123.5,224.5 Z"/></g>
<g><path style="opacity:1" fill="#989898" d="M 37.5,227.5 C 38.5,227.5 39.5,227.5 40.5,227.5C 40.1927,230.962 39.1927,230.962 37.5,227.5 Z"/></g>
<g><path style="opacity:1" fill="#232323" d="M 77.5,229.5 C 79.332,230.14 79.6653,231.14 78.5,232.5C 77.6143,231.675 77.281,230.675 77.5,229.5 Z"/></g>
<g><path style="opacity:1" fill="#c1c1c1" d="M 34.5,238.5 C 36.6237,239.031 38.1237,240.365 39,242.5C 39.6667,243.5 39.6667,244.5 39,245.5C 36.9798,243.449 35.4798,241.116 34.5,238.5 Z"/></g>
<g><path style="opacity:1" fill="#0e0e0e" d="M 121.5,248.5 C 122.765,249.514 123.431,251.014 123.5,253C 123.577,255.051 123.077,256.884 122,258.5C 121.502,255.183 121.335,251.85 121.5,248.5 Z"/></g>
<g><path style="opacity:1" fill="#bebebe" d="M 42.5,249.5 C 45.241,250.439 47.241,252.273 48.5,255C 45.4735,254.481 43.4735,252.648 42.5,249.5 Z"/></g>
<g><path style="opacity:1" fill="#f1f1f1" d="M 60.5,249.5 C 66.3111,251.643 71.6444,254.643 76.5,258.5C 73.9728,259.214 71.4728,259.88 69,260.5C 68.3333,261.5 68.3333,262.5 69,263.5C 70.2547,264.211 71.4214,265.044 72.5,266C 70.4132,265.782 68.4132,265.949 66.5,266.5C 68.1667,268.5 69.8333,270.5 71.5,272.5C 71.0688,273.293 70.7355,274.127 70.5,275C 72.0892,277.512 73.4225,280.178 74.5,283C 73.1859,286.233 73.8526,289.066 76.5,291.5C 76.1667,291.833 75.8333,292.167 75.5,292.5C 67.8057,284.474 60.139,276.474 52.5,268.5C 52.6667,268.167 52.8333,267.833 53,267.5C 54.6837,269.351 56.5171,271.018 58.5,272.5C 57.4505,268.292 55.1171,264.459 51.5,261C 52.9506,261.263 54.2839,261.096 55.5,260.5C 54.6198,258.571 53.6198,256.737 52.5,255C 53.1374,253.287 54.1374,253.121 55.5,254.5C 56.1997,251.985 57.5331,251.318 59.5,252.5C 60.3857,251.675 60.719,250.675 60.5,249.5 Z"/></g>
<g><path style="opacity:1" fill="#d9d9d9" d="M 82.5,253.5 C 86.2349,253.546 87.5683,255.213 86.5,258.5C 84.3886,257.395 83.0553,255.729 82.5,253.5 Z"/></g>
<g><path style="opacity:1" fill="#c6c6c6" d="M 31.5,252.5 C 33.9137,253.406 34.747,255.072 34,257.5C 32.6283,256.09 31.795,254.423 31.5,252.5 Z"/></g>
<g><path style="opacity:1" fill="#383838" d="M 123.5,271.5 C 124.797,272.849 124.63,274.182 123,275.5C 122.421,274.072 122.588,272.738 123.5,271.5 Z"/></g>
<g><path style="opacity:1" fill="#cccccc" d="M 91.5,288.5 C 93.337,288.639 93.6704,289.306 92.5,290.5C 91.7025,290.043 91.3691,289.376 91.5,288.5 Z"/></g>
<g><path style="opacity:1" fill="#161616" d="M 130.5,290.5 C 132.441,292.011 132.941,294.011 132,296.5C 130.681,294.75 130.181,292.75 130.5,290.5 Z"/></g>
<g><path style="opacity:1" fill="#b4b4b4" d="M 59.5,289.5 C 61.9705,289.027 64.3038,289.861 66.5,292C 63.9578,292.007 61.6245,291.174 59.5,289.5 Z"/></g>
<g><path style="opacity:1" fill="#bcbcbc" d="M 59.5,291.5 C 60.2891,291.783 60.9558,292.283 61.5,293C 60.184,293.528 59.5173,293.028 59.5,291.5 Z"/></g>
<g><path style="opacity:1" fill="#d9d9d9" d="M 68.5,295.5 C 68.56,294.957 68.8933,294.624 69.5,294.5C 70.8333,295.5 72.1667,296.5 73.5,297.5C 73.1667,297.833 72.8333,298.167 72.5,298.5C 71.1482,297.476 69.8149,296.476 68.5,295.5 Z"/></g>
<g><path style="opacity:1" fill="#e8e8e8" d="M 97.5,296.5 C 98.0768,295.227 98.7435,295.227 99.5,296.5C 99.0302,297.463 98.3635,297.463 97.5,296.5 Z"/></g>
<g><path style="opacity:1" fill="#ededed" d="M 9.5,203.5 C 11.5113,205.667 12.6779,208.334 13,211.5C 13.7965,219.273 15.1298,226.939 17,234.5C 20.874,242.122 23.5407,250.122 25,258.5C 30.7518,266.507 33.0852,275.507 32,285.5C 34,288.833 36.6667,291.5 40,293.5C 40.8706,297.984 42.2039,302.317 44,306.5C 45.5793,308.041 47.4127,309.208 49.5,310C 48.4464,311.388 48.2797,312.888 49,314.5C 50.7367,317.397 52.2367,320.397 53.5,323.5C 59.9279,327.026 63.9279,332.36 65.5,339.5C 60.5321,338.72 56.3654,336.387 53,332.5C 47.0649,321.572 40.7316,310.906 34,300.5C 27.3103,277.075 20.3103,253.742 13,230.5C 10.8476,221.628 9.68091,212.628 9.5,203.5 Z"/></g>
<g><path style="opacity:1" fill="#f2f2f2" d="M 58.5,296.5 C 63.1923,296.841 67.5256,298.341 71.5,301C 74.5568,303.723 77.8901,306.056 81.5,308C 83.3293,309.113 84.1626,310.613 84,312.5C 74.9291,313.477 67.2624,310.477 61,303.5C 59.5886,301.35 58.7553,299.016 58.5,296.5 Z"/></g>
<g><path style="opacity:1" fill="#d9d9d9" d="M 79.5,295.5 C 83.31,297.252 86.6433,299.752 89.5,303C 86.9023,302.874 84.569,301.874 82.5,300C 80.8588,298.871 79.8588,297.371 79.5,295.5 Z"/></g>
<g><path style="opacity:1" fill="#e7e7e7" d="M 86.5,306.5 C 88.2554,307.072 89.9221,307.906 91.5,309C 94.8744,313.376 98.8744,317.042 103.5,320C 101.833,320.667 100.167,320.667 98.5,320C 92.5272,317.197 88.5272,312.697 86.5,306.5 Z"/></g>
<g><path style="opacity:1" fill="#1a1a1a" d="M 136.5,308.5 C 140.662,312.665 141.995,317.665 140.5,323.5C 137.151,319.071 135.817,314.071 136.5,308.5 Z"/></g>
<g><path style="opacity:1" fill="#e5e5e5" d="M 96.5,310.5 C 96.7352,309.903 97.2352,309.57 98,309.5C 99.5,310 101,310.5 102.5,311C 106.311,314.74 110.644,317.74 115.5,320C 113.087,320.484 110.754,320.15 108.5,319C 104.343,316.336 100.343,313.503 96.5,310.5 Z"/></g>
<g><path style="opacity:1" fill="#999999" d="M 66.5,313.5 C 68.9575,313.926 70.1242,315.259 70,317.5C 68.3732,316.468 67.2066,315.134 66.5,313.5 Z"/></g>
<g><path style="opacity:1" fill="#d7d7d7" d="M 84.5,319.5 C 85.2891,319.783 85.9558,320.283 86.5,321C 85.184,321.528 84.5173,321.028 84.5,319.5 Z"/></g>
<g><path style="opacity:1" fill="#e4e4e4" d="M 95.5,321.5 C 98.8239,323.167 101.824,325.334 104.5,328C 100.004,328.016 97.0041,325.849 95.5,321.5 Z"/></g>
<g><path style="opacity:1" fill="#e4e4e4" d="M 83.5,332.5 C 85.0927,331.133 86.4261,331.466 87.5,333.5C 87.1667,333.833 86.8333,334.167 86.5,334.5C 85.4822,333.807 84.4822,333.141 83.5,332.5 Z"/></g>
<g><path style="opacity:1" fill="#e2e2e2" d="M 91.5,330.5 C 96.0236,332.348 99.6903,335.348 102.5,339.5C 102.167,339.833 101.833,340.167 101.5,340.5C 99.1667,339 96.8333,337.5 94.5,336C 92.84,334.512 91.84,332.679 91.5,330.5 Z"/></g>
<g><path style="opacity:1" fill="#d9d9d9" d="M 103.5,334.5 C 104.995,334.415 105.995,335.081 106.5,336.5C 104.604,337.639 103.604,336.973 103.5,334.5 Z"/></g>
<g><path style="opacity:1" fill="#eeeeee" d="M 157.5,335.5 C 159.465,335.948 159.798,336.948 158.5,338.5C 156.481,337.867 156.147,336.867 157.5,335.5 Z"/></g>
<g><path style="opacity:1" fill="#e1e1e1" d="M 77.5,341.5 C 79.288,341.215 80.9547,341.548 82.5,342.5C 81.6667,342.833 80.8333,343.167 80,343.5C 78.6244,343.316 77.7911,342.649 77.5,341.5 Z"/></g>
<g><path style="opacity:1" fill="#f7f7f7" d="M 162.5,346.5 C 163.497,345.287 164.497,345.454 165.5,347C 164.423,347.47 163.423,347.303 162.5,346.5 Z"/></g>
<g><path style="opacity:1" fill="#e2e2e2" d="M 96.5,347.5 C 98.2637,346.288 99.9303,346.621 101.5,348.5C 99.8084,349.201 98.1417,348.867 96.5,347.5 Z"/></g>
<g><path style="opacity:1" fill="#d8d8d8" d="M 74.5,349.5 C 75.0768,348.227 75.7435,348.227 76.5,349.5C 76.0302,350.463 75.3635,350.463 74.5,349.5 Z"/></g>
<g><path style="opacity:1" fill="#d5d5d5" d="M 105.5,351.5 C 107.308,351.491 108.975,351.991 110.5,353C 111.784,354.297 111.617,355.464 110,356.5C 109.097,355.299 107.931,354.465 106.5,354C 105.748,353.329 105.414,352.496 105.5,351.5 Z"/></g>
<g><path style="opacity:1" fill="#bababa" d="M 81.5,354.5 C 83.337,354.639 83.6704,355.306 82.5,356.5C 81.7025,356.043 81.3691,355.376 81.5,354.5 Z"/></g>
<g><path style="opacity:1" fill="#e7e7e7" d="M 91.5,360.5 C 93.3464,360.222 94.6798,360.889 95.5,362.5C 93.1671,363.941 91.8338,363.275 91.5,360.5 Z"/></g>
<g><path style="opacity:1" fill="#dddddd" d="M 127.5,362.5 C 129.772,361.236 132.105,361.402 134.5,363C 132.037,364.97 129.703,364.804 127.5,362.5 Z"/></g>
<g><path style="opacity:1" fill="#a5a5a5" d="M 124.5,367.5 C 126.089,366.379 127.756,366.546 129.5,368C 127.803,368.384 126.137,368.218 124.5,367.5 Z"/></g>
<g><path style="opacity:1" fill="#dbdbdb" d="M 106.5,378.5 C 107.568,377.566 108.901,377.232 110.5,377.5C 110.719,378.675 110.386,379.675 109.5,380.5C 108.482,379.807 107.482,379.141 106.5,378.5 Z"/></g>
<g><path style="opacity:1" fill="#ebebeb" d="M 75.5,355.5 C 76.2506,354.427 77.2506,354.26 78.5,355C 95.0911,370.617 112.424,385.283 130.5,399C 146.584,407.879 163.584,414.212 181.5,418C 183.83,420.167 186.497,421.834 189.5,423C 197.131,425.126 204.797,427.126 212.5,429C 214.996,430.08 217.33,431.414 219.5,433C 206.77,432.403 194.437,429.736 182.5,425C 162.481,417.158 142.814,408.491 123.5,399C 104.598,387.443 87.4315,373.61 72,357.5C 71.3123,356.668 71.479,356.002 72.5,355.5C 79.5597,362.547 86.893,369.38 94.5,376C 96.0548,377.289 97.7215,377.956 99.5,378C 91.3289,370.662 83.3289,363.162 75.5,355.5 Z"/></g>
<g><path style="opacity:1" fill="#c3c3c3" d="M 163.5,389.5 C 166.001,389.511 166.168,390.178 164,391.5C 163.536,390.906 163.369,390.239 163.5,389.5 Z"/></g>
<g><path style="opacity:1" fill="#b1b1b1" d="M 173.5,389.5 C 174.773,390.077 174.773,390.743 173.5,391.5C 171.902,392.485 170.235,392.651 168.5,392C 170.315,391.243 171.981,390.41 173.5,389.5 Z"/></g>
<g><path style="opacity:1" fill="#d9d9d9" d="M 150.5,391.5 C 151.404,392.209 151.737,393.209 151.5,394.5C 150.448,394.649 149.448,394.483 148.5,394C 149.381,393.292 150.047,392.458 150.5,391.5 Z"/></g>
<g><path style="opacity:1" fill="#e9e9e9" d="M 177.5,391.5 C 179.833,391.5 182.167,391.5 184.5,391.5C 185.596,398.013 182.929,401.346 176.5,401.5C 176.762,400.022 176.429,398.689 175.5,397.5C 173.929,398.309 172.262,398.643 170.5,398.5C 170.351,397.448 170.517,396.448 171,395.5C 173.314,394.267 175.481,392.933 177.5,391.5 Z"/></g>
<g><path style="opacity:1" fill="#e7e7e7" d="M 117.5,384.5 C 125.32,388.911 133.32,393.078 141.5,397C 142.833,398.333 144.167,399.667 145.5,401C 134.158,398.832 124.824,393.332 117.5,384.5 Z"/></g>
<g><path style="opacity:1" fill="#d0d0d0" d="M 278.5,396.5 C 280.465,396.948 280.798,397.948 279.5,399.5C 278.614,398.675 278.281,397.675 278.5,396.5 Z"/></g>
<g><path style="opacity:1" fill="#f5f5f5" d="M 187.5,398.5 C 189.924,398.192 192.257,398.526 194.5,399.5C 192.112,401.361 189.446,402.694 186.5,403.5C 185.316,401.533 185.649,399.866 187.5,398.5 Z"/></g>
<g><path style="opacity:1" fill="#dbdbdb" d="M 189.5,403.5 C 191.942,403.354 192.609,404.187 191.5,406C 189.55,407.496 187.55,407.663 185.5,406.5C 186.901,405.479 188.235,404.479 189.5,403.5 Z"/></g>
<g><path style="opacity:1" fill="#f0f0f0" d="M 197.5,405.5 C 202.666,406.034 202.666,407.034 197.5,408.5C 196.833,408.333 196.167,408.167 195.5,408C 196.381,407.292 197.047,406.458 197.5,405.5 Z"/></g>
<g><path style="opacity:1" fill="#ededed" d="M 199.5,410.5 C 204.506,410.566 204.506,411.566 199.5,413.5C 198.438,412.575 198.438,411.575 199.5,410.5 Z"/></g>
<g><path style="opacity:1" fill="#d8d8d8" d="M 206.5,411.5 C 211.6,411.466 211.766,412.132 207,413.5C 206.167,413.333 205.333,413.167 204.5,413C 205.416,412.722 206.082,412.222 206.5,411.5 Z"/></g>
<g><path style="opacity:1" fill="#e5e5e5" d="M 209.5,414.5 C 211.527,414.338 213.527,414.505 215.5,415C 213.246,416.256 210.912,417.423 208.5,418.5C 208.167,418.167 207.833,417.833 207.5,417.5C 208.193,416.482 208.859,415.482 209.5,414.5 Z"/></g>
<g><path style="opacity:1" fill="#eeeeee" d="M 243.5,414.5 C 248.675,414.272 253.675,415.105 258.5,417C 265.509,420.171 272.509,423.338 279.5,426.5C 276.216,427.657 272.882,427.824 269.5,427C 260.161,423.389 250.828,419.889 241.5,416.5C 242.243,415.818 242.909,415.151 243.5,414.5 Z"/></g>
<g><path style="opacity:1" fill="#e1e1e1" d="M 286.5,428.5 C 287.376,428.369 288.043,428.702 288.5,429.5C 286.192,430.873 285.525,430.54 286.5,428.5 Z"/></g>
<g><path style="opacity:1" fill="#f2f2f2" d="M 306.5,432.5 C 308.337,432.639 308.67,433.306 307.5,434.5C 306.702,434.043 306.369,433.376 306.5,432.5 Z"/></g>
<g><path style="opacity:1" fill="#e0e0e0" d="M 224.5,435.5 C 225.601,434.402 226.934,434.235 228.5,435C 227.318,436.768 225.985,436.935 224.5,435.5 Z"/></g>
<g><path style="opacity:1" fill="#dfdfdf" d="M 314.5,438.5 C 321.688,438.207 328.688,439.707 335.5,443C 328.13,443.226 321.13,441.726 314.5,438.5 Z"/></g>
</svg>
